<svg version="1.1" id="Layer_1" xmlns="http://www.w3.org/2000/svg" xmlns:xlink="http://www.w3.org/1999/xlink" x="0px" y="0px"
	 width="100%" viewBox="0 0 1024 1024" enable-background="new 0 0 1024 1024" xml:space="preserve">
<path fill="#000000" opacity="1.000000" stroke="none" 
	d="
M576.912476,536.808716 
	C630.253540,513.556213 667.044739,474.882111 685.340454,420.151276 
	C703.671814,365.313751 695.889771,312.638885 666.329468,262.494904 
	C670.942871,261.827606 674.640625,261.187469 678.363525,260.774597 
	C688.219543,259.681580 697.592407,256.833221 706.589722,252.814713 
	C709.793274,251.383926 711.422668,252.295929 713.027161,255.033981 
	C725.399902,276.147919 732.631226,299.059814 736.243164,323.096802 
	C738.316406,336.893311 739.933167,350.844360 739.260193,364.833527 
	C736.496338,422.289764 717.578308,473.195007 678.673340,516.411316 
	C653.178284,544.731689 623.167297,566.043213 587.601135,579.511719 
	C560.707520,589.696106 532.727844,594.985352 504.051971,594.136719 
	C415.522797,591.516602 347.572723,552.600403 301.418335,476.736603 
	C286.966309,452.981842 279.248169,426.632965 274.732208,399.342285 
	C272.423035,385.387482 271.168884,371.320953 271.649780,357.141663 
	C273.248230,310.010406 287.186096,266.985657 314.344818,228.315460 
	C345.854919,183.449448 388.495667,154.447723 440.860901,139.180130 
	C469.972961,130.692230 499.519928,128.589127 529.698547,131.416321 
	C554.221985,133.713730 577.880737,139.090744 600.909973,147.601700 
	C601.221924,147.716995 601.551331,147.785889 601.861511,147.905243 
	C611.590210,151.648544 611.686890,151.673416 609.192627,161.617310 
	C606.058777,174.111023 606.648132,186.670990 608.128174,199.276764 
	C608.374268,201.372879 608.528259,203.479828 608.811584,206.509964 
	C605.377869,204.538773 602.695007,202.982986 599.997681,201.452576 
	C575.465149,187.533401 548.901489,180.058197 521.109009,176.270126 
	C492.819366,172.414276 465.278809,175.464188 438.724274,185.634995 
	C410.301727,196.521286 385.628326,213.305679 364.912964,235.673309 
	C340.053040,262.516083 324.502045,293.988342 318.212646,330.087616 
	C315.598969,345.089355 314.471985,360.198822 315.478241,375.310669 
	C318.072601,414.272034 331.563812,449.186676 356.089813,479.667694 
	C385.021729,515.624390 422.533875,537.920837 467.449860,547.153015 
	C504.637299,554.796631 541.254028,551.725525 576.912476,536.808716 
z"/>
<path fill="#000000" opacity="1.000000" stroke="none" 
	d="
M524.055542,377.921875 
	C545.640869,388.450195 567.985718,391.019135 591.417725,388.938904 
	C620.072693,386.394989 645.230469,376.110687 667.417236,358.072205 
	C667.801880,357.759460 668.228394,357.480042 668.674866,357.268188 
	C668.951355,357.137024 669.302490,357.163300 669.620056,357.118927 
	C675.626892,398.611328 648.989075,473.611328 580.539551,509.461700 
	C515.469543,543.541992 436.632355,524.433105 397.132111,486.683624 
	C398.209381,484.922241 400.033630,484.895813 401.788239,484.573853 
	C413.433838,482.436981 424.604889,483.486328 435.286987,488.966827 
	C450.226929,496.631897 465.915863,496.935760 481.931427,493.257874 
	C483.691864,492.853577 484.422424,492.346497 486.383759,490.590576 
	C485.794250,488.847961 484.210693,488.708618 482.770874,488.447052 
	C469.771179,486.085419 458.145844,480.506104 447.056152,473.526306 
	C436.555542,466.917267 425.461487,461.898193 412.941681,460.126190 
	C400.987488,458.434296 389.368927,459.581024 377.953583,462.926056 
	C374.762085,463.861267 373.136322,463.412720 371.345703,460.792419 
	C362.086395,447.242981 354.589355,432.822693 348.909546,417.410980 
	C347.470581,413.506531 348.471039,411.789185 352.133240,410.289612 
	C369.976288,402.983276 388.203094,401.979706 406.912231,406.161835 
	C424.760010,410.151428 440.515686,418.311096 455.524658,428.619629 
	C475.364075,442.245758 496.263763,454.290680 520.249512,458.859589 
	C542.851196,463.164825 564.988831,460.879822 585.769287,450.142639 
	C587.898865,449.042297 590.330078,448.019806 591.235535,445.407288 
	C590.141968,443.517059 588.445923,444.165375 587.180786,444.566650 
	C560.383606,453.065918 535.643921,445.725189 511.357635,434.828644 
	C493.939423,427.013580 478.278473,416.234009 462.435486,405.764557 
	C447.927887,396.177612 433.058685,387.171814 415.826294,383.481323 
	C392.248322,378.431854 368.672852,377.708221 345.418610,385.584167 
	C344.635162,385.849518 343.840179,386.119507 343.028534,386.247986 
	C342.571228,386.320312 342.068756,386.107056 341.222015,385.958527 
	C339.173706,374.003387 339.179993,361.940582 340.177368,349.854462 
	C340.477356,346.219208 341.500885,342.620056 341.555573,338.994751 
	C341.612457,335.219879 343.521057,333.633423 346.762054,332.799561 
	C358.050171,329.895264 369.360626,327.437714 381.155914,327.592865 
	C398.950195,327.826996 416.819916,326.790741 434.403809,330.379974 
	C455.308472,334.647003 473.989868,343.939453 491.087402,356.521942 
	C501.561615,364.230133 512.056580,371.885681 524.055542,377.921875 
z"/>
<path fill="#000000" opacity="1.000000" stroke="none" 
	d="
M642.329773,809.812622 
	C643.627563,814.128479 645.487854,817.873535 646.022095,821.914246 
	C644.388000,823.714478 642.448669,823.170654 640.705750,823.181396 
	C632.212097,823.233765 623.692322,822.799438 615.232971,823.339294 
	C609.796753,823.686218 607.625183,821.653992 606.220703,816.684570 
	C603.645752,807.573608 600.229065,798.703430 597.510925,789.628784 
	C596.113220,784.962341 593.788574,783.091553 588.668945,783.179016 
	C570.353882,783.492188 552.029236,783.388794 533.710266,783.218140 
	C529.900208,783.182617 528.138062,784.466553 526.975281,788.124939 
	C523.701782,798.423706 519.886414,808.549194 516.521973,818.820740 
	C515.477905,822.008362 513.933228,823.347656 510.468414,823.269653 
	C501.312927,823.063599 492.149475,823.229431 482.989349,823.196838 
	C481.386169,823.191101 479.644501,823.572815 478.117859,822.046997 
	C478.173309,818.773743 479.709686,815.768433 480.751312,812.674622 
	C499.428986,757.197571 518.173035,701.742920 536.835999,646.260925 
	C537.759705,643.514709 538.939819,642.425720 542.114380,642.456604 
	C554.426575,642.576782 566.747620,642.406555 579.055420,642.024048 
	C583.148132,641.896790 584.904480,643.530396 586.177368,647.230164 
	C604.787048,701.322144 623.519531,755.371826 642.329773,809.812622 
M574.726440,720.579468 
	C570.437561,707.835022 566.718933,694.881409 561.247986,681.618286 
	C553.805359,705.496643 546.324341,728.128235 538.261047,750.994141 
	C553.852295,750.994141 568.773315,750.994141 584.649475,750.994141 
	C581.218872,740.514771 578.080444,730.927979 574.726440,720.579468 
z"/>
<path fill="#000000" opacity="1.000000" stroke="none" 
	d="
M695.182617,695.214600 
	C695.248840,698.424805 695.248840,701.185120 695.248840,703.560608 
	C696.998230,704.330872 697.694580,703.791382 698.259338,703.216553 
	C719.182373,681.923218 770.018738,685.579773 781.692078,725.359802 
	C789.001526,750.268860 788.753723,775.106384 776.389587,798.551880 
	C761.002319,827.730103 721.147461,833.380127 697.591370,810.190552 
	C697.164429,809.770325 696.612793,809.476807 695.314758,808.549133 
	C695.314758,819.587830 695.314758,829.843262 695.314758,840.098694 
	C695.314758,850.245117 695.314758,860.391541 695.314758,870.092590 
	C693.921875,871.758240 692.515625,871.401917 691.225891,871.403564 
	C682.563599,871.414795 673.892578,871.161133 665.242554,871.483398 
	C660.496765,871.660217 658.871277,870.206787 658.928772,865.327454 
	C659.162476,845.506897 659.026855,825.682068 659.024353,805.858765 
	C659.019775,770.543396 659.009216,735.228027 659.010498,699.912659 
	C659.010742,692.962830 659.030090,692.945190 665.942810,692.925476 
	C673.938599,692.902649 681.935059,692.861694 689.929871,692.951843 
	C691.778320,692.972656 694.082153,692.203369 695.182617,695.214600 
M696.288757,743.663574 
	C694.583618,755.632446 694.335815,767.558533 698.247803,779.177185 
	C702.477112,791.738281 710.849854,797.392944 723.894592,796.905579 
	C736.799744,796.423523 744.411316,790.443054 747.607727,777.453369 
	C750.871582,764.189575 751.009094,750.759155 747.798096,737.439453 
	C745.144714,726.432678 737.083679,719.128174 727.304626,718.375305 
	C712.787720,717.257812 703.992432,722.006042 699.007996,733.744873 
	C697.774658,736.649536 696.698547,739.628784 696.288757,743.663574 
z"/>
<path fill="#000000" opacity="1.000000" stroke="none" 
	d="
M860.933838,692.573486 
	C885.929260,685.800964 917.516418,696.128174 925.666687,727.683716 
	C931.655640,750.871094 931.536377,773.880432 921.310364,795.932739 
	C906.443542,827.993286 868.431335,830.907715 846.256165,815.013794 
	C843.627686,813.129883 841.387085,810.704712 838.241821,807.879211 
	C838.241821,829.423279 838.241821,850.139709 838.241821,871.337830 
	C827.067932,871.337830 816.457092,871.326660 805.846313,871.346436 
	C803.453735,871.350891 802.641724,870.052002 802.696228,867.869812 
	C802.729431,866.538635 802.672791,865.205444 802.672729,863.873169 
	C802.668274,809.411560 802.664001,754.950012 802.664795,700.488403 
	C802.664856,692.989624 802.676880,692.986755 809.934326,692.967407 
	C817.762085,692.946533 825.592773,693.052246 833.416260,692.860535 
	C837.013123,692.772400 838.696899,693.928162 838.384949,697.709900 
	C838.172302,700.288086 838.344299,702.898010 838.344299,706.820801 
	C845.278992,699.696106 852.112549,694.847595 860.933838,692.573486 
M891.033325,737.491577 
	C888.670593,728.752502 883.953979,721.773376 874.851440,719.449646 
	C859.695435,715.580505 847.727417,719.579285 842.045105,734.775879 
	C836.619385,749.286072 836.905945,764.138306 841.398010,778.823364 
	C845.234497,791.365540 853.989563,797.361755 866.765869,796.915222 
	C880.107727,796.448914 887.447754,790.609619 890.804504,777.321472 
	C894.075256,764.373901 893.634644,751.312073 891.033325,737.491577 
z"/>
<path fill="#000000" opacity="1.000000" stroke="none" 
	d="
M290.950378,741.710083 
	C299.852295,740.098145 308.191742,737.606689 316.921021,737.632690 
	C321.407745,737.645996 322.250427,735.082947 321.421936,731.359314 
	C319.947906,724.734375 315.560577,721.033569 309.128082,719.780334 
	C302.869385,718.560974 296.459259,718.435669 290.257507,719.767334 
	C283.053986,721.314270 277.347076,725.458557 274.706787,732.553528 
	C273.227356,736.528992 271.269257,737.299805 267.241547,736.616089 
	C261.696014,735.674561 255.989609,735.663574 250.348724,735.308105 
	C247.697678,735.141052 245.061890,734.997131 242.706192,733.795654 
	C242.513458,718.114441 253.788910,701.663452 269.103271,695.718628 
	C287.809784,688.457092 306.975250,688.568359 325.869293,694.377625 
	C344.325378,700.052246 353.973145,714.773071 354.158081,735.661804 
	C354.332123,755.317566 354.308655,774.975220 354.336548,794.632080 
	C354.348145,802.794067 354.938141,810.916016 356.067169,818.988464 
	C356.500427,822.086243 355.438446,823.291931 352.374634,823.262207 
	C344.212616,823.182983 336.049194,823.171265 327.887054,823.231445 
	C325.264923,823.250732 323.882629,822.114746 323.409088,819.582458 
	C323.018524,817.493896 322.473206,815.434265 322.017426,813.452942 
	C319.978333,812.799072 319.048401,814.268188 317.902496,815.074219 
	C309.322723,821.108643 299.627228,823.887817 289.317627,824.260376 
	C280.034760,824.595825 270.720520,824.932678 261.659485,821.740356 
	C244.095169,815.552368 236.418747,798.886108 238.020996,782.154968 
	C239.851212,763.043579 252.037064,753.195618 268.907928,747.711426 
	C276.009918,745.402832 283.317902,743.727905 290.950378,741.710083 
M279.538879,793.988342 
	C288.290527,799.666321 303.312256,799.149048 311.558655,792.885742 
	C318.909729,787.302490 323.610779,771.993103 320.565216,762.630737 
	C315.791626,763.554504 310.929871,764.385620 306.119843,765.450562 
	C297.869781,767.277039 289.388489,768.445923 282.156647,773.379883 
	C274.649200,778.502014 273.408142,786.351685 279.538879,793.988342 
z"/>
<path fill="#000000" opacity="1.000000" stroke="none" 
	d="
M189.999893,823.221130 
	C166.012543,823.232910 142.524124,823.131042 119.038712,823.350708 
	C114.246620,823.395569 112.725578,821.919189 112.736275,817.109802 
	C112.861534,760.807129 112.849335,704.503845 112.713036,648.201172 
	C112.702347,643.784302 114.083977,642.427246 118.435196,642.529053 
	C129.404694,642.785767 140.384216,642.614075 151.255692,642.614075 
	C152.986694,644.940552 152.297318,647.354675 152.299698,649.593018 
	C152.346710,693.735901 152.332077,737.878845 152.335342,782.021790 
	C152.335831,788.643311 152.348282,788.652832 158.889954,788.654785 
	C179.378937,788.660889 199.867935,788.653748 220.356918,788.663391 
	C227.332016,788.666626 227.339264,788.682373 227.345322,795.864197 
	C227.351654,803.360168 227.211014,810.859314 227.395630,818.350647 
	C227.485840,822.011475 226.198334,823.336182 222.481171,823.273010 
	C211.823532,823.091858 201.160675,823.216614 189.999893,823.221130 
z"/>
<path fill="#000000" opacity="1.000000" stroke="none" 
	d="
M399.144287,702.040039 
	C407.828400,728.654236 416.395508,754.890381 425.081940,781.492065 
	C427.932343,773.041138 430.750214,764.696533 433.561554,756.349731 
	C440.199860,736.640686 446.855255,716.937256 453.442780,697.211304 
	C454.163818,695.052124 454.771912,692.953491 457.531921,692.943848 
	C467.492096,692.908997 477.452423,692.930115 487.130615,692.930115 
	C488.468048,695.475159 487.245697,697.094849 486.677338,698.736084 
	C472.903259,738.511108 459.055573,778.260803 445.358398,818.062195 
	C444.091187,821.744507 442.395660,823.434326 438.265198,823.303223 
	C428.944550,823.007507 419.604279,823.060059 410.279694,823.286987 
	C406.545868,823.377808 404.653778,822.206787 403.356476,818.555054 
	C391.547852,785.315125 379.548553,752.142883 367.600494,718.952515 
	C364.674194,710.823486 361.731232,702.700439 358.848114,694.719177 
	C360.516541,692.455627 362.670502,693.024841 364.559296,693.000366 
	C371.888947,692.905212 379.220490,692.889099 386.550873,692.927490 
	C398.193115,692.988464 395.471222,692.263489 399.144287,702.040039 
z"/>
<path fill="#000000" opacity="1.000000" stroke="none" 
	d="
M712.338257,216.295029 
	C699.209961,230.189026 683.171814,232.934357 665.795959,228.948242 
	C649.285522,225.160645 638.949158,214.311600 634.380005,198.052277 
	C627.016174,171.848007 641.241394,146.408127 666.947510,140.431473 
	C696.480713,133.565018 723.493591,153.341675 723.428650,184.696075 
	C723.404175,196.536652 720.028198,206.909439 712.338257,216.295029 
z"/>
</svg>